<svg width="893" height="576" viewBox="0 0 893 576" fill="none" xmlns="http://www.w3.org/2000/svg">
<path d="M69.1034 348.422C117.54 328.538 180.672 341.359 217.027 303.655C239.45 280.403 243.368 244.981 260.675 217.599C286.907 176.092 339.48 159.685 388.353 154.361C432.654 149.58 481.526 149.906 515.704 121.329C546.726 95.2516 557.719 50.9196 588.958 25.0593C624.769 -4.71263 676.798 -2.21353 722.95 3.76259C763.114 9.08677 803.17 15.8235 842.79 24.2987C856.505 27.2325 874.574 29.4056 892.643 32.774V575.406H77.3758C72.6954 571.82 68.1238 568.126 63.5522 564.323C38.5173 543.352 15.3328 518.252 5.10111 487.285C-12.5322 434.261 17.1832 369.827 69.1034 348.422Z" fill="#00768F" fill-opacity="0.1"/>
</svg>
