<svg width="616" height="644" viewBox="0 0 616 644" fill="none" xmlns="http://www.w3.org/2000/svg">
<mask id="mask0" style="mask-type:alpha" maskUnits="userSpaceOnUse" x="0" y="0" width="616" height="644">
<rect width="616" height="644" fill="#C4C4C4"/>
</mask>
<g mask="url(#mask0)">
<path d="M305.036 348.427L326.533 328.903L674.638 710.837L653.14 730.362L305.036 348.427Z" fill="#CB8600"/>
<path d="M287.552 364.27L297.133 355.568L645.237 737.502L635.656 746.204L287.552 364.27Z" fill="#FCA600"/>
<path d="M334.512 321.691L344.093 312.989L692.197 694.924L682.616 703.626L334.512 321.691Z" fill="#FCA600"/>
<path d="M339.887 352.362C342.935 345.625 346.309 339.106 350.119 332.913C354.037 326.393 358.609 319.439 359.371 312.159L375.372 325.307C375.589 325.415 375.698 325.524 375.916 325.741C380.161 330.414 366.011 350.08 344.241 369.856C342.282 371.703 340.214 373.442 338.255 375.072C337.166 372.681 336.295 370.182 336.187 367.466C335.751 362.25 337.71 357.143 339.887 352.362Z" fill="#00ADD2"/>
<path d="M297.219 397.02C297.11 396.912 297.002 396.694 296.893 396.477L251.395 329.436L312.784 273.695L359.371 312.051C358.609 319.331 354.038 326.285 350.119 332.804C346.309 339.106 342.935 345.626 339.887 352.254C337.71 357.035 335.751 362.141 336.187 367.357C336.404 370.073 337.166 372.573 338.255 374.963C318.771 391.587 301.138 401.258 297.219 397.02Z" fill="#017791"/>
<path d="M254.007 143.741C281.654 177.642 310.716 210.456 346.2 235.773C360.459 245.879 375.698 254.788 392.461 259.787C404.107 263.264 416.516 264.785 428.598 263.59L450.803 289.559C432.19 306.4 405.849 309.443 386.909 296.621L214.386 179.707L254.007 143.741Z" fill="#017791"/>
<path d="M392.461 259.787C375.698 254.788 360.46 245.879 346.201 235.773C310.716 210.456 281.545 177.642 254.007 143.741L256.946 141.133C277.736 122.336 308.431 123.314 325.411 143.089L428.489 263.481C416.516 264.785 404.107 263.264 392.461 259.787Z" fill="#00ADD2"/>
<path d="M161.704 340.953C143.853 324.112 126.002 307.27 108.151 290.537C110.002 279.997 115.444 269.675 124.369 261.525L166.929 222.952L263.803 399.194C248.564 398.542 233.217 393.652 219.611 386.481C197.732 374.854 179.555 357.795 161.704 340.953Z" fill="#017791"/>
<path d="M108.151 290.428C126.002 307.27 143.853 324.112 161.704 340.845C179.664 357.687 197.841 374.855 219.611 386.264C233.217 393.435 248.455 398.216 263.803 398.976L267.286 405.278C278.28 425.271 272.837 451.24 254.224 468.082L119.907 329.762C109.457 319.005 105.648 304.445 108.151 290.428Z" fill="#00ADD2"/>
<path d="M321.056 313.571C334.444 298.903 343.479 284.669 345.547 274.89L355.67 288.363C359.479 293.253 355.561 304.118 346.418 316.94C342.39 315.419 338.254 314.441 333.9 314.006C329.655 313.571 325.41 313.571 321.056 313.571Z" fill="#FCA600"/>
<path d="M264.238 357.577C265.327 357.034 266.524 356.491 267.612 355.948C269.898 354.752 272.293 353.448 274.796 352.036C277.3 350.623 279.803 348.993 282.416 347.255C290.144 342.039 298.307 335.629 306.362 328.349C311.696 323.459 316.594 318.57 321.057 313.68C325.302 313.68 329.655 313.571 333.901 314.006C338.146 314.441 342.391 315.527 346.418 316.94C340.214 325.632 331.506 335.303 321.274 344.647C295.913 367.682 269.463 380.613 261.952 373.55L249.544 362.25C251.176 362.032 253.027 361.706 254.877 361.163C257.707 360.294 260.864 359.099 264.238 357.577Z" fill="#CB8600"/>
<path d="M303.642 312.376C291.886 309.769 282.09 301.945 272.838 294.231C213.407 244.9 158.439 190.355 108.587 131.354C112.07 128.638 115.553 125.704 118.927 122.553C137.54 105.602 151.473 86.9134 159.092 71.1582C200.672 97.2358 235.721 129.181 261.953 163.951L345.548 274.89C343.48 284.669 334.554 298.794 321.057 313.572C315.179 313.68 309.302 313.68 303.642 312.376Z" fill="white"/>
<path d="M63.8503 157.649C77.2385 152.651 93.1302 143.741 108.587 131.354C158.439 190.355 213.407 244.901 272.837 294.231C282.089 301.946 291.886 309.66 303.641 312.377C309.301 313.681 315.179 313.681 321.057 313.572C316.594 318.461 311.696 323.351 306.362 328.241C298.308 335.521 290.144 341.931 282.416 347.147C279.803 348.885 277.3 350.515 274.796 351.928C272.293 353.34 269.898 354.753 267.613 355.839C266.415 356.383 265.327 356.926 264.238 357.469C260.864 358.99 257.707 360.186 254.877 360.946C252.918 361.49 251.177 361.816 249.544 362.033L146.792 268.479C114.464 239.251 86.0551 201.438 63.8503 157.649Z" fill="#D2D3D3"/>
<path d="M108.587 131.463C76.912 93.976 47.3056 54.7509 20.0938 13.896C71.3608 25.6309 118.383 45.6238 159.092 71.2668C151.472 87.022 137.54 105.82 118.927 122.661C115.553 125.704 112.07 128.638 108.587 131.463Z" fill="#00ADD2"/>
<path d="M63.8502 157.649C42.1896 114.73 26.5156 65.9429 19.7671 13.7876C19.8759 13.7876 19.9848 13.7876 20.0936 13.8963C47.4143 54.7512 76.9119 93.9763 108.586 131.463C93.1301 143.741 77.3473 152.76 63.8502 157.649Z" fill="#017791"/>
<path opacity="0.21" d="M127.961 200.351C129.267 187.204 135.363 174.382 145.921 164.712C168.779 143.958 204.154 145.588 224.944 168.406C232.781 176.99 237.353 187.312 238.986 197.961C241.598 215.672 235.502 234.361 221.243 247.291C198.385 268.044 163.01 266.415 142.22 243.597C131.118 231.427 126.437 215.563 127.961 200.351Z" fill="black"/>
<path d="M175.201 214.368C155.935 211.434 138.737 200.134 125.893 185.574C127.199 172.426 133.294 159.605 143.852 149.934C166.71 129.181 202.086 130.811 222.876 153.629C230.713 162.213 235.284 172.535 236.917 183.183C234.74 187.312 232.454 191.224 229.624 194.81C216.998 210.674 195.12 217.519 175.201 214.368Z" fill="#FCA600"/>
<path d="M125.893 185.574C138.737 200.134 156.044 211.434 175.201 214.368C195.12 217.41 216.999 210.674 229.516 194.918C232.346 191.333 234.741 187.312 236.809 183.292C239.421 201.003 233.326 219.692 219.067 232.622C196.209 253.376 160.833 251.746 140.043 228.928C129.05 216.65 124.369 200.786 125.893 185.574Z" fill="#CB8600"/>
<path d="M145.051 167.428L217.978 167.211C219.611 169.71 221.026 172.318 222.115 175.143L141.024 175.36C142.003 172.644 143.309 169.927 145.051 167.428Z" fill="white"/>
<path d="M140.915 175.36L222.006 175.143C223.53 178.837 224.401 182.749 224.836 186.661L138.085 186.878C138.52 182.966 139.5 179.055 140.915 175.36Z" fill="#017791"/>
<path d="M152.126 159.062C169.977 142.872 197.515 144.176 213.733 161.995C215.257 163.625 216.672 165.472 217.87 167.211L144.942 167.428C147.01 164.495 149.405 161.67 152.126 159.062Z" fill="#017791"/>
<path d="M157.133 227.407L206.114 227.298C191.311 237.403 171.827 237.295 157.133 227.407Z" fill="white"/>
<path d="M149.296 220.561C146.03 216.976 143.418 212.955 141.568 208.718L221.679 208.5C219.285 214.042 215.693 219.149 210.903 223.495C209.379 224.908 207.747 226.103 206.114 227.298L157.133 227.407C154.303 225.56 151.69 223.278 149.296 220.561Z" fill="#017791"/>
<path d="M138.085 186.878L224.836 186.661C225.598 194.049 224.509 201.655 221.571 208.501L141.459 208.718C138.52 201.764 137.431 194.267 138.085 186.878Z" fill="white"/>
</g>
</svg>
