<svg width="1014" height="690" viewBox="0 0 1014 690" fill="none" xmlns="http://www.w3.org/2000/svg">
<path d="M941.815 72.3979C932.974 63.5719 932.974 49.2621 941.815 40.4361C950.657 31.6101 964.991 31.6101 973.833 40.4361C982.674 49.2621 982.674 63.5719 973.833 72.3979C964.991 81.2239 950.657 81.2239 941.815 72.3979Z" fill="#00ADD2"/>
<path d="M58.5746 595.212C51.7827 579.315 59.1861 560.932 75.1106 554.152C91.0351 547.372 109.45 554.763 116.242 570.659C123.034 586.556 115.631 604.939 99.7062 611.719C83.7817 618.499 65.3665 611.108 58.5746 595.212Z" fill="#00ADD2"/>
<path d="M201.901 532.227C143.668 538.312 101.326 590.359 107.422 648.49C108.984 663.59 113.661 677.616 120.746 690H1013V151.662L1004.32 149.212C1005.3 144.757 1005.74 140.085 1005.19 135.304C1002.8 112.704 982.663 96.2965 960.023 98.6869C937.383 101.077 920.947 121.179 923.342 143.779C923.559 145.735 923.886 147.691 924.321 149.538C902.225 157.253 887.531 179.31 890.034 203.541C890.687 210.386 892.756 216.688 895.803 222.447C892.647 221.686 889.381 221.469 886.007 221.795C869.789 223.534 858.033 237.985 859.775 254.066C860.646 261.889 864.455 268.735 870.115 273.407C861.516 279.274 856.292 289.597 857.489 300.68C859.013 315.023 870.659 325.888 884.592 326.866C870.659 337.297 862.387 354.465 864.346 372.937C865.761 386.627 872.51 398.471 882.306 406.62C870.006 412.488 862.061 425.635 863.584 439.978C864.02 444.324 865.326 448.344 867.285 452.039C843.23 461.166 823.637 478.66 811.773 500.717C805.786 499.087 799.473 498.544 793.051 499.196C773.894 501.152 758.438 513.43 751.472 529.837C743.852 526.686 735.471 525.382 726.654 526.251C713.375 527.664 701.728 534.075 693.565 543.528C688.993 531.25 676.585 523.1 662.979 524.513C651.55 525.708 642.407 533.205 638.597 543.202C625.971 534.401 610.405 529.946 593.969 531.684C580.255 533.097 567.846 538.747 558.05 547.113C548.907 528.642 528.879 516.907 507.218 519.189C491.109 520.818 477.612 529.837 469.557 542.55C461.829 537.334 452.25 534.618 442.236 535.704C432.44 536.791 423.841 541.137 417.419 547.548C414.589 532.662 400.874 522.231 385.527 523.861C378.125 524.73 371.594 528.207 366.914 533.314C352.764 520.384 333.933 512.778 313.688 512.995C303.238 499.413 286.149 491.264 267.863 493.22C245.767 495.501 228.46 511.691 223.671 532.227C216.596 531.467 209.303 531.467 201.901 532.227Z" fill="#00ADD2"/>
<path d="M87.3655 577.092C62.2217 578.07 42.6291 599.149 43.4999 624.249C44.2618 646.958 61.6774 665.104 83.7734 667.929L87 690L1013.03 689.902L1013 63.7583C978.023 76.7399 953.701 110.913 955.097 150.179C955.314 155.612 956.076 160.936 957.165 166.043C938.116 174.192 925.164 193.207 925.925 215.047C926.034 219.502 926.796 223.957 928.102 228.086H926.361C911.884 228.63 900.564 240.69 901.108 255.142C901.326 261.444 903.829 267.203 907.748 271.549C893.054 279.59 883.257 295.453 883.91 313.273C884.346 324.03 888.482 333.809 895.013 341.415C885.87 347.283 879.883 357.605 880.318 369.231C880.536 377.272 883.802 384.443 888.917 389.768C881.189 392.049 875.638 399.329 875.964 407.805C876.073 412.911 878.359 417.366 881.733 420.517C874.332 432.144 872.373 446.812 877.38 460.503C863.665 467.24 853.869 480.605 852.236 496.36C849.623 495.817 846.902 495.491 844.181 495.599C831.337 496.034 820.452 503.749 815.119 514.506C813.813 514.288 812.398 514.288 811.092 514.288C798.356 514.832 788.125 524.828 787.145 537.215C777.131 532.76 765.811 530.369 754.055 530.804C721.728 531.999 694.951 553.513 685.699 582.633C680.148 580.895 674.379 580.026 668.284 580.243C660.447 580.569 653.154 582.525 646.623 585.893C639.33 569.269 622.459 557.968 603.193 558.62C592.961 558.946 583.492 562.749 576.09 568.834C570.212 563.401 562.158 560.141 553.45 560.467C537.449 561.011 524.714 573.289 523.19 588.718C512.959 585.024 501.203 585.024 490.318 589.587C489.23 590.022 488.25 590.457 487.271 591C484.767 567.53 464.413 549.602 440.357 550.471C429.581 550.906 419.785 555.035 412.166 561.554C404.111 555.578 393.988 552.101 383.212 552.535C370.804 552.97 359.81 558.294 351.864 566.552C346.966 559.489 338.694 555.035 329.442 555.361C316.489 555.795 306.04 565.683 304.407 578.07C301.25 577.853 298.203 577.852 295.046 577.961C275.889 578.613 258.473 585.35 244.323 596.107C227.452 574.701 200.784 561.337 171.396 562.423C149.626 563.184 130.034 571.768 115.013 585.241C107.176 579.808 97.5971 576.766 87.3655 577.092Z" fill="#017791"/>
<path d="M352.111 591.119C345.907 590.685 339.594 590.793 333.281 591.554C284.303 597.705 249.326 641.432 253.549 690H1012.5L1013 219.3C1005.74 208.737 992.941 202.517 979.29 204.192C959.806 206.583 946.091 224.294 948.486 243.743C948.704 245.373 949.03 247.003 949.466 248.633C930.526 255.587 918.226 274.928 920.839 295.79C921.601 301.657 923.451 307.09 926.172 311.98C923.451 311.328 920.621 311.219 917.682 311.545C903.75 313.284 893.953 325.888 895.695 339.796C896.566 346.533 900.049 352.292 904.947 356.312C897.545 361.527 893.3 370.546 894.498 380.108C896.021 392.386 906.253 401.513 918.335 402.165C906.471 411.401 899.722 426.395 901.682 442.259C903.205 453.994 909.192 464.099 917.791 470.945C907.233 476.269 900.702 487.678 902.226 500.065C902.661 503.759 903.858 507.236 905.6 510.387C885.028 518.754 868.592 534.183 858.687 553.415C853.571 552.111 848.129 551.785 842.577 552.437C826.142 554.393 813.08 565.259 807.311 579.602C800.78 576.994 793.378 575.907 785.868 576.885C774.33 578.298 764.425 584.057 757.568 592.314C753.431 581.775 742.547 574.929 730.791 576.451C720.995 577.754 713.267 584.383 710.11 593.075C699.117 585.795 685.62 582.209 671.469 583.948C659.605 585.469 649.047 590.576 640.774 597.965C632.611 582.209 615.195 572.43 596.474 574.821C582.541 576.559 571.112 584.6 564.364 595.683C557.615 591.337 549.234 589.163 540.635 590.25C532.254 591.337 524.961 595.248 519.518 600.898C516.797 588.186 504.715 579.493 491.545 581.123C485.123 581.992 479.571 585.143 475.653 589.598C463.244 578.624 446.917 572.43 429.393 572.974C420.25 561.347 405.338 554.719 389.555 556.675C370.506 559.065 355.812 573.3 352.111 591.119Z" fill="#00ADD2"/>
<path d="M340.464 658.813C333.498 654.901 325.334 653.162 316.844 654.358C298.441 656.858 284.899 672.131 283.996 690H1013V689.5V178.825C1003.94 193.049 999.68 210.414 1002.15 228.423C1002.8 232.987 1003.89 237.333 1005.19 241.462C990.065 249.72 980.813 266.67 983.316 284.707C983.861 288.402 984.84 291.987 986.255 295.356C985.82 295.356 985.276 295.356 984.84 295.464C972.867 297.094 964.486 308.068 966.119 320.021C966.881 325.345 969.384 329.8 972.976 333.168C961.329 340.991 954.581 355.008 956.54 369.785C957.737 378.804 961.982 386.519 968.078 392.277C961.003 397.928 956.867 406.946 958.173 416.617C959.044 423.245 962.309 428.895 966.989 432.915C960.785 435.523 956.758 442.042 957.737 448.996C958.282 453.125 960.567 456.602 963.615 458.993C958.499 469.206 957.955 481.593 963.289 492.568C952.404 499.304 945.438 511.257 945.329 524.404C943.152 524.187 940.866 524.187 938.58 524.513C927.913 525.925 919.423 533.097 915.94 542.55C914.743 542.441 913.654 542.55 912.566 542.658C901.899 544.071 894.279 553.198 894.497 563.629C885.68 560.695 876.211 559.718 866.414 561.021C839.638 564.716 819.284 584.817 813.95 609.7C809.27 608.722 804.371 608.504 799.364 609.156C792.834 610.026 786.956 612.307 781.84 615.567C774.438 602.311 759.417 594.27 743.526 596.444C735.036 597.639 727.525 601.55 721.865 607.201C716.532 603.18 709.565 601.116 702.381 602.094C689.211 603.832 679.632 615.133 679.632 628.063C670.707 625.89 661.019 626.867 652.312 631.54C651.441 631.974 650.679 632.409 649.917 632.952C645.89 613.72 627.495 600.464 607.575 603.18C598.65 604.375 590.813 608.613 585.044 614.698C577.969 610.352 569.261 608.396 560.336 609.591C550.104 611.004 541.396 616.328 535.518 623.825C530.947 618.501 523.654 615.35 516.035 616.436C505.259 617.958 497.422 626.976 497.095 637.407C494.592 637.516 491.98 637.733 489.367 638.059C473.584 640.232 459.652 647.186 448.767 657.291C432.984 640.884 409.8 631.974 385.418 635.234C367.458 637.624 351.784 646.317 340.464 658.813Z" fill="#017791"/>
<path d="M130.457 498.565C121.465 493.592 118.215 482.284 123.196 473.309C128.178 464.333 139.505 461.088 148.497 466.06C157.488 471.033 160.739 482.341 155.758 491.317C150.776 500.293 139.449 503.538 130.457 498.565Z" fill="#00ADD2"/>
<path d="M335.568 470.945C335.568 474.313 338.289 477.029 341.663 477.029C345.038 477.029 347.759 474.313 347.759 470.945C347.759 467.576 345.038 464.86 341.663 464.86C338.289 464.86 335.568 467.576 335.568 470.945Z" fill="#017892"/>
<path d="M847.583 183.982C847.583 189.307 851.937 193.653 857.271 193.653C862.604 193.653 866.958 189.307 866.958 183.982C866.958 178.658 862.604 174.312 857.271 174.312C851.937 174.203 847.583 178.55 847.583 183.982Z" fill="#017791"/>
<path d="M874.335 55.4422C874.335 63.9174 881.193 70.7628 889.683 70.7628C898.173 70.7628 905.03 63.9174 905.03 55.4422C905.03 46.967 898.173 40.1216 889.683 40.1216C881.193 40.2302 874.335 47.0756 874.335 55.4422Z" fill="#00ADD2"/>
<path d="M448.1 514.673C439.531 505.582 439.967 491.278 449.073 482.724C458.18 474.17 472.509 474.606 481.077 483.696C489.646 492.787 489.21 507.091 480.104 515.644C470.997 524.198 456.669 523.763 448.1 514.673Z" fill="#00ADD2"/>
<path d="M32.9776 648.838C22.3709 645.305 16.6413 633.858 20.1802 623.27C23.7191 612.682 35.1864 606.962 45.7931 610.495C56.3997 614.028 62.1292 625.475 58.5903 636.063C55.0514 646.651 43.5842 652.37 32.9776 648.838Z" fill="#00ADD2"/>
<path d="M801.432 431.394C801.323 437.261 805.895 442.151 811.773 442.259C817.65 442.368 822.548 437.804 822.657 431.937C822.766 426.069 818.195 421.18 812.317 421.071C806.439 420.963 801.65 425.526 801.432 431.394Z" fill="#017791"/>
<path d="M652.919 489.633C652.143 486.425 654.119 483.196 657.333 482.421C660.546 481.646 663.781 483.618 664.557 486.826C665.334 490.035 663.358 493.263 660.144 494.038C656.93 494.813 653.696 492.841 652.919 489.633Z" fill="#017791"/>
<path d="M814.059 377.5C813.95 380.76 816.562 383.585 819.936 383.585C823.202 383.694 826.032 381.086 826.032 377.718C826.141 374.458 823.528 371.633 820.154 371.633C816.889 371.633 814.059 374.241 814.059 377.5Z" fill="#00ADD2"/>
<path d="M943.841 166.575C940.389 158.065 944.502 148.373 953.027 144.927C961.553 141.481 971.262 145.587 974.714 154.097C978.166 162.607 974.053 172.3 965.528 175.746C957.002 179.191 947.293 175.086 943.841 166.575Z" fill="#017791"/>
<path d="M923.559 317.956C923.45 321.759 926.498 324.91 930.308 325.019C934.117 325.128 937.274 322.085 937.383 318.282C937.492 314.479 934.444 311.328 930.634 311.22C926.825 311.111 923.668 314.153 923.559 317.956Z" fill="#017791"/>
<path d="M348.848 592.098C348.63 601.225 355.923 608.831 365.066 609.048C374.209 609.265 381.828 601.985 382.046 592.858C382.264 583.731 374.971 576.125 365.828 575.908C356.685 575.691 349.065 582.97 348.848 592.098Z" fill="#017791"/>
<path d="M248.305 541.476C247.475 538.281 249.396 535.019 252.597 534.191C255.797 533.362 259.065 535.28 259.895 538.475C260.725 541.67 258.804 544.932 255.603 545.76C252.403 546.589 249.135 544.671 248.305 541.476Z" fill="#017791"/>
<path d="M175.98 594.722C174.285 590.487 176.35 585.681 180.592 583.989C184.835 582.296 189.649 584.358 191.344 588.593C193.04 592.828 190.975 597.633 186.732 599.326C182.49 601.018 177.676 598.957 175.98 594.722Z" fill="#017791"/>
<path d="M873.759 500.564C861.285 497.956 853.291 485.747 855.903 473.295C858.516 460.843 870.746 452.862 883.22 455.47C895.694 458.078 903.689 470.287 901.076 482.739C898.464 495.192 886.233 503.172 873.759 500.564Z" fill="#017791"/>
<path d="M775.853 564.825C775.745 570.366 780.099 575.039 785.759 575.256C791.31 575.365 795.99 571.018 796.208 565.368C796.317 559.827 791.963 555.155 786.303 554.937C780.643 554.829 775.962 559.283 775.853 564.825Z" fill="#017791"/>
<path d="M717.511 553.307C717.62 548.961 721.212 545.593 725.566 545.701C729.92 545.81 733.294 549.396 733.185 553.742C733.076 558.088 729.484 561.456 725.13 561.348C720.776 561.239 717.402 557.654 717.511 553.307Z" fill="#017791"/>
</svg>
